<mxfile host="Electron" modified="2023-09-26T21:14:07.033Z" agent="Mozilla/5.0 (Macintosh; Intel Mac OS X 10_15_7) AppleWebKit/537.36 (KHTML, like Gecko) draw.io/21.8.2 Chrome/114.0.5735.289 Electron/25.8.1 Safari/537.36" etag="Phb1G7ZBlxd8jvcCUbgR" version="21.8.2" type="device">
  <diagram name="Page-1" id="ugzg2o5_LcXGpwFK0HJw">
    <mxGraphModel dx="662" dy="478" grid="1" gridSize="10" guides="1" tooltips="1" connect="1" arrows="1" fold="1" page="1" pageScale="1" pageWidth="827" pageHeight="1169" math="0" shadow="0">
      <root>
        <mxCell id="0" />
        <mxCell id="1" parent="0" />
        <mxCell id="g0van4Q0hPVGJ6m3p4-s-5" value="" style="edgeStyle=orthogonalEdgeStyle;rounded=0;orthogonalLoop=1;jettySize=auto;html=1;" edge="1" parent="1" source="g0van4Q0hPVGJ6m3p4-s-1" target="g0van4Q0hPVGJ6m3p4-s-4">
          <mxGeometry relative="1" as="geometry" />
        </mxCell>
        <mxCell id="g0van4Q0hPVGJ6m3p4-s-15" style="edgeStyle=orthogonalEdgeStyle;rounded=0;orthogonalLoop=1;jettySize=auto;html=1;entryX=0.5;entryY=0;entryDx=0;entryDy=0;fillColor=#d80073;strokeColor=#A50040;" edge="1" parent="1" source="g0van4Q0hPVGJ6m3p4-s-1" target="g0van4Q0hPVGJ6m3p4-s-14">
          <mxGeometry relative="1" as="geometry" />
        </mxCell>
        <mxCell id="g0van4Q0hPVGJ6m3p4-s-20" value="1. Sign" style="edgeLabel;html=1;align=center;verticalAlign=middle;resizable=0;points=[];" vertex="1" connectable="0" parent="g0van4Q0hPVGJ6m3p4-s-15">
          <mxGeometry x="-0.1649" y="-2" relative="1" as="geometry">
            <mxPoint as="offset" />
          </mxGeometry>
        </mxCell>
        <mxCell id="g0van4Q0hPVGJ6m3p4-s-27" style="edgeStyle=orthogonalEdgeStyle;rounded=0;orthogonalLoop=1;jettySize=auto;html=1;entryX=0.5;entryY=0;entryDx=0;entryDy=0;exitX=0;exitY=0.5;exitDx=0;exitDy=0;fillColor=#1ba1e2;strokeColor=#006EAF;" edge="1" parent="1" source="g0van4Q0hPVGJ6m3p4-s-1" target="g0van4Q0hPVGJ6m3p4-s-26">
          <mxGeometry relative="1" as="geometry" />
        </mxCell>
        <mxCell id="g0van4Q0hPVGJ6m3p4-s-1" value="Private/Secret/Signing key" style="rounded=1;whiteSpace=wrap;html=1;fillColor=#647687;fontColor=#ffffff;strokeColor=#314354;" vertex="1" parent="1">
          <mxGeometry x="200" y="210" width="170" height="60" as="geometry" />
        </mxCell>
        <mxCell id="g0van4Q0hPVGJ6m3p4-s-3" style="edgeStyle=orthogonalEdgeStyle;rounded=0;orthogonalLoop=1;jettySize=auto;html=1;entryX=0.5;entryY=0;entryDx=0;entryDy=0;" edge="1" parent="1" source="g0van4Q0hPVGJ6m3p4-s-2" target="g0van4Q0hPVGJ6m3p4-s-1">
          <mxGeometry relative="1" as="geometry" />
        </mxCell>
        <mxCell id="g0van4Q0hPVGJ6m3p4-s-2" value="Random number" style="rounded=1;whiteSpace=wrap;html=1;" vertex="1" parent="1">
          <mxGeometry x="225" y="100" width="120" height="60" as="geometry" />
        </mxCell>
        <mxCell id="g0van4Q0hPVGJ6m3p4-s-4" value="Public/Verifying key" style="rounded=1;whiteSpace=wrap;html=1;fillColor=#ffcd28;strokeColor=#d79b00;gradientColor=#ffa500;" vertex="1" parent="1">
          <mxGeometry x="480" y="210" width="150" height="60" as="geometry" />
        </mxCell>
        <mxCell id="g0van4Q0hPVGJ6m3p4-s-8" value="" style="endArrow=none;html=1;rounded=0;exitX=0.618;exitY=0.014;exitDx=0;exitDy=0;exitPerimeter=0;" edge="1" parent="1" source="g0van4Q0hPVGJ6m3p4-s-17">
          <mxGeometry width="50" height="50" relative="1" as="geometry">
            <mxPoint x="485" y="403.0000000000001" as="sourcePoint" />
            <mxPoint x="530" y="340" as="targetPoint" />
          </mxGeometry>
        </mxCell>
        <mxCell id="g0van4Q0hPVGJ6m3p4-s-9" value="" style="endArrow=none;html=1;rounded=0;exitX=0.609;exitY=0.011;exitDx=0;exitDy=0;exitPerimeter=0;" edge="1" parent="1" source="g0van4Q0hPVGJ6m3p4-s-17">
          <mxGeometry width="50" height="50" relative="1" as="geometry">
            <mxPoint x="485" y="403.0000000000001" as="sourcePoint" />
            <mxPoint x="560" y="340" as="targetPoint" />
          </mxGeometry>
        </mxCell>
        <mxCell id="g0van4Q0hPVGJ6m3p4-s-39" value="components" style="edgeLabel;html=1;align=center;verticalAlign=middle;resizable=0;points=[];" vertex="1" connectable="0" parent="g0van4Q0hPVGJ6m3p4-s-9">
          <mxGeometry x="-0.2192" relative="1" as="geometry">
            <mxPoint as="offset" />
          </mxGeometry>
        </mxCell>
        <mxCell id="g0van4Q0hPVGJ6m3p4-s-11" value="r" style="text;html=1;align=center;verticalAlign=middle;resizable=0;points=[];autosize=1;strokeColor=none;fillColor=none;" vertex="1" parent="1">
          <mxGeometry x="517" y="313" width="30" height="30" as="geometry" />
        </mxCell>
        <mxCell id="g0van4Q0hPVGJ6m3p4-s-12" value="s" style="text;html=1;align=center;verticalAlign=middle;resizable=0;points=[];autosize=1;strokeColor=none;fillColor=none;" vertex="1" parent="1">
          <mxGeometry x="555" y="320" width="30" height="30" as="geometry" />
        </mxCell>
        <mxCell id="g0van4Q0hPVGJ6m3p4-s-18" value="" style="edgeStyle=orthogonalEdgeStyle;rounded=0;orthogonalLoop=1;jettySize=auto;html=1;" edge="1" parent="1" source="g0van4Q0hPVGJ6m3p4-s-14" target="g0van4Q0hPVGJ6m3p4-s-17">
          <mxGeometry relative="1" as="geometry" />
        </mxCell>
        <mxCell id="g0van4Q0hPVGJ6m3p4-s-21" value="returns" style="edgeLabel;html=1;align=center;verticalAlign=middle;resizable=0;points=[];" vertex="1" connectable="0" parent="g0van4Q0hPVGJ6m3p4-s-18">
          <mxGeometry x="-0.2177" y="-1" relative="1" as="geometry">
            <mxPoint x="13" y="-1" as="offset" />
          </mxGeometry>
        </mxCell>
        <mxCell id="g0van4Q0hPVGJ6m3p4-s-22" style="edgeStyle=orthogonalEdgeStyle;rounded=0;orthogonalLoop=1;jettySize=auto;html=1;exitX=0.5;exitY=1;exitDx=0;exitDy=0;fillColor=#d80073;strokeColor=#A50040;" edge="1" parent="1" source="g0van4Q0hPVGJ6m3p4-s-14">
          <mxGeometry relative="1" as="geometry">
            <mxPoint x="630" y="240" as="targetPoint" />
            <Array as="points">
              <mxPoint x="285" y="540" />
              <mxPoint x="730" y="540" />
              <mxPoint x="730" y="240" />
            </Array>
          </mxGeometry>
        </mxCell>
        <mxCell id="g0van4Q0hPVGJ6m3p4-s-14" value="Message &lt;br&gt;&lt;font style=&quot;font-size: 10px;&quot;&gt;(in bytes)&lt;/font&gt;" style="rounded=1;whiteSpace=wrap;html=1;fillColor=#cdeb8b;strokeColor=#36393d;" vertex="1" parent="1">
          <mxGeometry x="230" y="413" width="110" height="60" as="geometry" />
        </mxCell>
        <mxCell id="g0van4Q0hPVGJ6m3p4-s-23" style="edgeStyle=orthogonalEdgeStyle;rounded=0;orthogonalLoop=1;jettySize=auto;html=1;entryX=1;entryY=0.5;entryDx=0;entryDy=0;exitX=1;exitY=0.5;exitDx=0;exitDy=0;fillColor=#d80073;strokeColor=#A50040;" edge="1" parent="1" source="g0van4Q0hPVGJ6m3p4-s-17" target="g0van4Q0hPVGJ6m3p4-s-4">
          <mxGeometry relative="1" as="geometry">
            <mxPoint x="440" y="550" as="targetPoint" />
            <Array as="points">
              <mxPoint x="730" y="443" />
              <mxPoint x="730" y="240" />
            </Array>
          </mxGeometry>
        </mxCell>
        <mxCell id="g0van4Q0hPVGJ6m3p4-s-24" value="2. Verify" style="edgeLabel;html=1;align=center;verticalAlign=middle;resizable=0;points=[];" vertex="1" connectable="0" parent="g0van4Q0hPVGJ6m3p4-s-23">
          <mxGeometry x="0.4424" relative="1" as="geometry">
            <mxPoint y="40" as="offset" />
          </mxGeometry>
        </mxCell>
        <mxCell id="g0van4Q0hPVGJ6m3p4-s-17" value="Signature" style="ellipse;whiteSpace=wrap;html=1;fillColor=#ffcccc;strokeColor=#36393d;rounded=1;" vertex="1" parent="1">
          <mxGeometry x="435" y="403" width="80" height="80" as="geometry" />
        </mxCell>
        <mxCell id="g0van4Q0hPVGJ6m3p4-s-31" style="edgeStyle=orthogonalEdgeStyle;rounded=0;orthogonalLoop=1;jettySize=auto;html=1;entryX=0;entryY=0.5;entryDx=0;entryDy=0;exitX=0.5;exitY=1;exitDx=0;exitDy=0;fillColor=#1ba1e2;strokeColor=#006EAF;" edge="1" parent="1" source="g0van4Q0hPVGJ6m3p4-s-28" target="g0van4Q0hPVGJ6m3p4-s-38">
          <mxGeometry relative="1" as="geometry">
            <mxPoint x="440" y="754" as="targetPoint" />
          </mxGeometry>
        </mxCell>
        <mxCell id="g0van4Q0hPVGJ6m3p4-s-40" value="returns" style="edgeLabel;html=1;align=center;verticalAlign=middle;resizable=0;points=[];" vertex="1" connectable="0" parent="g0van4Q0hPVGJ6m3p4-s-31">
          <mxGeometry x="0.2503" y="1" relative="1" as="geometry">
            <mxPoint as="offset" />
          </mxGeometry>
        </mxCell>
        <mxCell id="g0van4Q0hPVGJ6m3p4-s-41" value="1. Sign" style="edgeLabel;html=1;align=center;verticalAlign=middle;resizable=0;points=[];" vertex="1" connectable="0" parent="g0van4Q0hPVGJ6m3p4-s-31">
          <mxGeometry x="-0.7865" y="2" relative="1" as="geometry">
            <mxPoint as="offset" />
          </mxGeometry>
        </mxCell>
        <mxCell id="g0van4Q0hPVGJ6m3p4-s-32" value="" style="endArrow=none;html=1;rounded=0;exitX=0.618;exitY=0.014;exitDx=0;exitDy=0;exitPerimeter=0;" edge="1" parent="1" source="g0van4Q0hPVGJ6m3p4-s-38">
          <mxGeometry width="50" height="50" relative="1" as="geometry">
            <mxPoint x="492" y="737.0000000000001" as="sourcePoint" />
            <mxPoint x="537" y="674" as="targetPoint" />
          </mxGeometry>
        </mxCell>
        <mxCell id="g0van4Q0hPVGJ6m3p4-s-33" value="" style="endArrow=none;html=1;rounded=0;exitX=0.609;exitY=0.011;exitDx=0;exitDy=0;exitPerimeter=0;" edge="1" parent="1" source="g0van4Q0hPVGJ6m3p4-s-38">
          <mxGeometry width="50" height="50" relative="1" as="geometry">
            <mxPoint x="492" y="737.0000000000001" as="sourcePoint" />
            <mxPoint x="567" y="674" as="targetPoint" />
          </mxGeometry>
        </mxCell>
        <mxCell id="g0van4Q0hPVGJ6m3p4-s-34" value="components" style="endArrow=none;html=1;rounded=0;exitX=0.618;exitY=-0.001;exitDx=0;exitDy=0;exitPerimeter=0;" edge="1" parent="1" source="g0van4Q0hPVGJ6m3p4-s-38">
          <mxGeometry x="-0.2703" y="8" width="50" height="50" relative="1" as="geometry">
            <mxPoint x="493.0000000000002" y="737" as="sourcePoint" />
            <mxPoint x="597" y="694" as="targetPoint" />
            <mxPoint x="1" as="offset" />
          </mxGeometry>
        </mxCell>
        <mxCell id="g0van4Q0hPVGJ6m3p4-s-35" value="r" style="text;html=1;align=center;verticalAlign=middle;resizable=0;points=[];autosize=1;strokeColor=none;fillColor=none;" vertex="1" parent="1">
          <mxGeometry x="512" y="654" width="30" height="30" as="geometry" />
        </mxCell>
        <mxCell id="g0van4Q0hPVGJ6m3p4-s-36" value="s" style="text;html=1;align=center;verticalAlign=middle;resizable=0;points=[];autosize=1;strokeColor=none;fillColor=none;" vertex="1" parent="1">
          <mxGeometry x="562" y="654" width="30" height="30" as="geometry" />
        </mxCell>
        <mxCell id="g0van4Q0hPVGJ6m3p4-s-37" value="v" style="text;html=1;align=center;verticalAlign=middle;resizable=0;points=[];autosize=1;strokeColor=none;fillColor=none;" vertex="1" parent="1">
          <mxGeometry x="592" y="677" width="30" height="30" as="geometry" />
        </mxCell>
        <mxCell id="g0van4Q0hPVGJ6m3p4-s-42" style="edgeStyle=orthogonalEdgeStyle;rounded=0;orthogonalLoop=1;jettySize=auto;html=1;entryX=1;entryY=0;entryDx=0;entryDy=0;fillColor=#1ba1e2;strokeColor=#006EAF;" edge="1" parent="1" source="g0van4Q0hPVGJ6m3p4-s-38" target="g0van4Q0hPVGJ6m3p4-s-4">
          <mxGeometry relative="1" as="geometry">
            <mxPoint x="629.9999999999998" y="324" as="targetPoint" />
            <Array as="points">
              <mxPoint x="820" y="777" />
              <mxPoint x="820" y="210" />
            </Array>
          </mxGeometry>
        </mxCell>
        <mxCell id="g0van4Q0hPVGJ6m3p4-s-38" value="Signature,&lt;br&gt;Recovery Id" style="ellipse;whiteSpace=wrap;html=1;fillColor=#ffcccc;strokeColor=#36393d;rounded=1;" vertex="1" parent="1">
          <mxGeometry x="442" y="737" width="80" height="80" as="geometry" />
        </mxCell>
        <mxCell id="g0van4Q0hPVGJ6m3p4-s-45" value="Message Digest" style="swimlane;whiteSpace=wrap;html=1;rounded=1;glass=1;shadow=0;dashed=1;strokeColor=#006600;gradientColor=none;swimlaneFillColor=#E6E6E6;" vertex="1" parent="1">
          <mxGeometry x="25" y="380" width="195" height="340" as="geometry">
            <mxRectangle x="25" y="380" width="140" height="30" as="alternateBounds" />
          </mxGeometry>
        </mxCell>
        <mxCell id="g0van4Q0hPVGJ6m3p4-s-26" value="Message &lt;br&gt;&lt;font style=&quot;font-size: 10px;&quot;&gt;(in bytes)&lt;/font&gt;" style="rounded=1;whiteSpace=wrap;html=1;fillColor=#cdeb8b;strokeColor=#36393d;" vertex="1" parent="g0van4Q0hPVGJ6m3p4-s-45">
          <mxGeometry x="47.5" y="33" width="110" height="60" as="geometry" />
        </mxCell>
        <mxCell id="g0van4Q0hPVGJ6m3p4-s-28" value="&lt;font color=&quot;#ffffff&quot;&gt;Message digest&lt;/font&gt;" style="rounded=1;whiteSpace=wrap;html=1;fillColor=#839659;strokeColor=#36393d;" vertex="1" parent="g0van4Q0hPVGJ6m3p4-s-45">
          <mxGeometry x="47.5" y="257" width="110" height="60" as="geometry" />
        </mxCell>
        <mxCell id="g0van4Q0hPVGJ6m3p4-s-29" value="" style="edgeStyle=orthogonalEdgeStyle;rounded=0;orthogonalLoop=1;jettySize=auto;html=1;fillColor=#1ba1e2;strokeColor=#006EAF;" edge="1" parent="g0van4Q0hPVGJ6m3p4-s-45" source="g0van4Q0hPVGJ6m3p4-s-26" target="g0van4Q0hPVGJ6m3p4-s-28">
          <mxGeometry relative="1" as="geometry" />
        </mxCell>
        <mxCell id="g0van4Q0hPVGJ6m3p4-s-30" value="hash" style="edgeLabel;html=1;align=center;verticalAlign=middle;resizable=0;points=[];" vertex="1" connectable="0" parent="g0van4Q0hPVGJ6m3p4-s-29">
          <mxGeometry x="-0.0839" y="-1" relative="1" as="geometry">
            <mxPoint as="offset" />
          </mxGeometry>
        </mxCell>
        <mxCell id="g0van4Q0hPVGJ6m3p4-s-44" style="edgeStyle=orthogonalEdgeStyle;rounded=0;orthogonalLoop=1;jettySize=auto;html=1;entryX=1;entryY=0;entryDx=0;entryDy=0;fillColor=#1ba1e2;strokeColor=#006EAF;exitX=0.998;exitY=0.224;exitDx=0;exitDy=0;exitPerimeter=0;" edge="1" parent="1" source="g0van4Q0hPVGJ6m3p4-s-28" target="g0van4Q0hPVGJ6m3p4-s-4">
          <mxGeometry relative="1" as="geometry">
            <Array as="points">
              <mxPoint x="820" y="650" />
              <mxPoint x="820" y="210" />
            </Array>
          </mxGeometry>
        </mxCell>
        <mxCell id="g0van4Q0hPVGJ6m3p4-s-46" value="2. Verify" style="edgeLabel;html=1;align=center;verticalAlign=middle;resizable=0;points=[];" vertex="1" connectable="0" parent="g0van4Q0hPVGJ6m3p4-s-44">
          <mxGeometry x="0.5218" relative="1" as="geometry">
            <mxPoint as="offset" />
          </mxGeometry>
        </mxCell>
      </root>
    </mxGraphModel>
  </diagram>
</mxfile>
